<svg xmlns="http://www.w3.org/2000/svg" xmlns:xlink="http://www.w3.org/1999/xlink" width="20" height="20" viewBox="0 0 20 20">
  <defs>
    <path id="a" d="M12.58 0a4.103 4.103 0 0 1 4.092 4.092v8.488a4.103 4.103 0 0 1-4.092 4.092H4.092A4.103 4.103 0 0 1 0 12.58V4.092A4.103 4.103 0 0 1 4.092 0h8.488zm2.37 12.387h-.009V4.286a2.564 2.564 0 0 0-2.554-2.555H4.286A2.564 2.564 0 0 0 1.73 4.286v8.1a2.564 2.564 0 0 0 2.555 2.555h8.109a2.564 2.564 0 0 0 2.555-2.554zm3.319-8.303A4.09 4.09 0 0 1 20 7.42v8.488A4.103 4.103 0 0 1 15.908 20H7.42c-1.37 0-2.596-.69-3.336-1.731h11.63a2.564 2.564 0 0 0 2.555-2.555V4.084zM6.822 7.873a2.344 2.344 0 0 1-.093-.654c0-.858.513-1.531 1.189-1.531.546 0 .874.397.874.95 0 .293-.058.518-.293 1.272a13.008 13.008 0 0 0-.188.661c-.11.462.224.852.71.852.89 0 1.568-1.17 1.568-2.701 0-1.147-.788-1.906-2.102-1.906-1.478 0-2.515 1.063-2.515 2.419 0 .403.109.707.321.955.131.154.157.25.108.43a21.63 21.63 0 0 0-.11.43c-.058.22-.26.316-.466.232-.776-.314-1.198-1.142-1.198-2.18 0-1.865 1.623-3.491 4.008-3.491 2.044 0 3.567 1.449 3.567 3.213 0 2.205-1.259 3.815-3.061 3.815-.479 0-.96-.198-1.253-.487l-.12.466-.003.011a53.79 53.79 0 0 1-.184.707 4.303 4.303 0 0 1-.467 1.034 6.998 6.998 0 0 1-.534.77c-.115.147-.361.094-.388-.1a7.339 7.339 0 0 1-.042-.32 6.23 6.23 0 0 1-.017-1.297 3.63 3.63 0 0 1 .078-.472l.34-1.427.343-1.442a1.863 1.863 0 0 1-.072-.209z"/>
  </defs>
  <use xlink:href="#a"/>
</svg>
